<?xml version="1.0" encoding="utf-8"?>
<!-- Generator: Adobe Illustrator 27.9.0, SVG Export Plug-In . SVG Version: 6.00 Build 0)  -->
<svg version="1.1" id="Vrstva_1" xmlns="http://www.w3.org/2000/svg" xmlns:xlink="http://www.w3.org/1999/xlink" x="0px" y="0px"
	 viewBox="0 0 501 135.2" style="enable-background:new 0 0 501 135.2;" xml:space="preserve">
<style type="text/css">
	.st0{fill:#DA1725;}
	.st1{fill:#2C4161;}
</style>
<g>
	<g id="logo_skupina_00000166653525445202115180000003583225199814010296_">
		<polygon class="st0" points="100.2,35.1 81.1,2 5.1,133.7 43.3,133.7 		"/>
		<polygon class="st1" points="137.1,98.9 98.8,98.9 81.1,68.2 100.2,35.1 		"/>
		<polygon class="st1" points="157.1,133.6 118.9,133.6 108.9,116.3 147.1,116.3 		"/>
	</g>
	<g>
		<path class="st0" d="M229.5,29.2l-1.1-2.5l-0.9-2.1l-0.9,2.1l-41.1,89.5h16.1l7.7-18.2h36.5l7.6,18.2h16.1L229.5,29.2z
			 M214.4,85.5l13.1-31l12.9,31H214.4z"/>
		<path class="st0" d="M330.7,112.5c-5.1,2.7-11.4,3.7-17.9,3.7c-26,0-46.2-19.8-46.2-45.9c0-26.5,20.3-45.9,46.5-45.9
			c6.5,0,12.5,0.8,17.6,3.3v14.1c-5.2-2.6-10.6-3.9-17.5-3.9c-18.1,0-31.8,13.6-31.8,32.4c0,18.7,13.7,32.2,31.8,32.2
			c6.9,0,12.3-1.3,17.5-3.8V112.5z"/>
		<path class="st0" d="M365.7,38.2H343V24.4h60.5v13.8h-22.7v78h-15.1L365.7,38.2L365.7,38.2z"/>
		<path class="st0" d="M415.6,24.4h14.8v91.8h-14.8V24.4z"/>
		<path class="st0" d="M442.7,111.1V97.3c4.5,3,10.8,5.8,18.8,5.8c13.5,0,19.1-6.7,19.1-13.5c0-5.7-3.4-10.3-10.9-13.8l-10.2-5
			c-10.2-5-16.7-12.1-16.7-22.1c0-14.2,12.4-24.2,32.2-24.2c7.1,0,13,1.4,15.8,3.1v13.8c-3.5-2.1-9.6-4-15.6-4
			c-11.1,0-17.3,4.6-17.3,11.3c0,4.5,2.7,7.7,9.1,10.8l10.2,4.9c11.9,5.7,17.6,13.8,17.6,24.8c0,13.9-9.8,27.1-32.8,27.1
			C454.1,116.2,447.3,114.1,442.7,111.1z"/>
	</g>
</g>
</svg>
